# xmcd
#
# Track frame offsets:
#	153
#	13022
#	25171
#	39694
#	52987
#	67822
#	79992
#	94995
#	109442
#	123666
#	135912
#	144868
#
# Disc length: 2110 seconds
#
# Revision: 0
# Processed by: cddbd v1.5.2PL0 Copyright (c) Steve Scherf et al.
# Submitted via: EZCDAudioConverter 1.3.4.1
#
DISCID=9e083c0c
DTITLE=Orchester Fred Rabold - In südamerika
DYEAR=2013
DGENRE=Dance
TTITLE0=Brazilian Fever
TTITLE1=Dos Barbas in Barbados
TTITLE2=Banana-Split
TTITLE3=It's Mambo Time
TTITLE4=Hasta Pronto
TTITLE5=Ineke
TTITLE6=Hello Sweety
TTITLE7=Pata La Vaca-Bossa
TTITLE8=Mambo D'Oro
TTITLE9=Look At Me
TTITLE10=Your Lovely Face
TTITLE11=Ambiente Tropical
EXTD=
EXTT0=
EXTT1=
EXTT2=
EXTT3=
EXTT4=
EXTT5=
EXTT6=
EXTT7=
EXTT8=
EXTT9=
EXTT10=
EXTT11=
PLAYORDER=
